<mxfile host="app.diagrams.net" modified="2023-09-29T13:58:00.227Z" agent="Mozilla/5.0 (Windows NT 10.0; Win64; x64) AppleWebKit/537.36 (KHTML, like Gecko) Chrome/116.0.0.0 Safari/537.36" etag="iKr1gConxSn4NuOKn5qd" version="22.0.0" type="github">
  <diagram name="Страница — 1" id="0rFsSWV5bVa63NM5_MFF">
    <mxGraphModel dx="763" dy="393" grid="1" gridSize="10" guides="1" tooltips="1" connect="1" arrows="1" fold="1" page="1" pageScale="1" pageWidth="827" pageHeight="1169" math="0" shadow="0">
      <root>
        <mxCell id="0" />
        <mxCell id="1" parent="0" />
        <mxCell id="X3c0APTzvyZXx92i1vRk-1" value="Умный дом" style="rounded=0;whiteSpace=wrap;html=1;" vertex="1" parent="1">
          <mxGeometry x="40" y="40" width="150" height="80" as="geometry" />
        </mxCell>
        <mxCell id="X3c0APTzvyZXx92i1vRk-15" style="edgeStyle=orthogonalEdgeStyle;rounded=0;orthogonalLoop=1;jettySize=auto;html=1;endArrow=diamond;endFill=1;strokeWidth=2;" edge="1" parent="1" source="X3c0APTzvyZXx92i1vRk-2" target="X3c0APTzvyZXx92i1vRk-6">
          <mxGeometry relative="1" as="geometry" />
        </mxCell>
        <mxCell id="X3c0APTzvyZXx92i1vRk-2" value="Плагины - сервисы" style="rounded=0;whiteSpace=wrap;html=1;" vertex="1" parent="1">
          <mxGeometry x="430" y="110" width="120" height="60" as="geometry" />
        </mxCell>
        <mxCell id="X3c0APTzvyZXx92i1vRk-14" value="1" style="edgeStyle=orthogonalEdgeStyle;rounded=0;orthogonalLoop=1;jettySize=auto;html=1;endArrow=diamond;endFill=1;strokeWidth=2;" edge="1" parent="1" source="X3c0APTzvyZXx92i1vRk-3" target="X3c0APTzvyZXx92i1vRk-6">
          <mxGeometry x="-0.6667" y="-10" relative="1" as="geometry">
            <mxPoint as="offset" />
          </mxGeometry>
        </mxCell>
        <mxCell id="X3c0APTzvyZXx92i1vRk-3" value="Конфигурационный каталог" style="rounded=0;whiteSpace=wrap;html=1;" vertex="1" parent="1">
          <mxGeometry x="250" y="250" width="120" height="60" as="geometry" />
        </mxCell>
        <mxCell id="X3c0APTzvyZXx92i1vRk-4" value="Протокол подключения" style="rounded=0;whiteSpace=wrap;html=1;" vertex="1" parent="1">
          <mxGeometry x="630" y="210" width="120" height="60" as="geometry" />
        </mxCell>
        <mxCell id="X3c0APTzvyZXx92i1vRk-28" style="edgeStyle=orthogonalEdgeStyle;rounded=0;orthogonalLoop=1;jettySize=auto;html=1;strokeWidth=2;" edge="1" parent="1" source="X3c0APTzvyZXx92i1vRk-5" target="X3c0APTzvyZXx92i1vRk-4">
          <mxGeometry relative="1" as="geometry" />
        </mxCell>
        <mxCell id="X3c0APTzvyZXx92i1vRk-5" value="Суб-серверы" style="rounded=0;whiteSpace=wrap;html=1;" vertex="1" parent="1">
          <mxGeometry x="470" y="190" width="120" height="60" as="geometry" />
        </mxCell>
        <mxCell id="X3c0APTzvyZXx92i1vRk-18" value="1" style="edgeStyle=orthogonalEdgeStyle;rounded=0;orthogonalLoop=1;jettySize=auto;html=1;entryX=1;entryY=0.5;entryDx=0;entryDy=0;endArrow=diamond;endFill=1;strokeWidth=2;" edge="1" parent="1" source="X3c0APTzvyZXx92i1vRk-6" target="X3c0APTzvyZXx92i1vRk-1">
          <mxGeometry x="-0.7143" y="20" relative="1" as="geometry">
            <mxPoint as="offset" />
          </mxGeometry>
        </mxCell>
        <mxCell id="X3c0APTzvyZXx92i1vRk-6" value="Центральный сервер" style="rounded=0;whiteSpace=wrap;html=1;" vertex="1" parent="1">
          <mxGeometry x="250" y="130" width="120" height="60" as="geometry" />
        </mxCell>
        <mxCell id="X3c0APTzvyZXx92i1vRk-27" style="edgeStyle=orthogonalEdgeStyle;rounded=0;orthogonalLoop=1;jettySize=auto;html=1;strokeWidth=2;endArrow=diamond;endFill=0;" edge="1" parent="1" source="X3c0APTzvyZXx92i1vRk-7" target="X3c0APTzvyZXx92i1vRk-3">
          <mxGeometry relative="1" as="geometry">
            <Array as="points">
              <mxPoint x="420" y="300" />
              <mxPoint x="420" y="280" />
            </Array>
          </mxGeometry>
        </mxCell>
        <mxCell id="X3c0APTzvyZXx92i1vRk-29" style="edgeStyle=orthogonalEdgeStyle;rounded=0;orthogonalLoop=1;jettySize=auto;html=1;strokeWidth=2;endArrow=diamond;endFill=1;" edge="1" parent="1" source="X3c0APTzvyZXx92i1vRk-7" target="X3c0APTzvyZXx92i1vRk-5">
          <mxGeometry relative="1" as="geometry" />
        </mxCell>
        <mxCell id="X3c0APTzvyZXx92i1vRk-7" value="Контроллеры" style="rounded=0;whiteSpace=wrap;html=1;" vertex="1" parent="1">
          <mxGeometry x="470" y="300" width="120" height="60" as="geometry" />
        </mxCell>
        <mxCell id="X3c0APTzvyZXx92i1vRk-26" style="edgeStyle=orthogonalEdgeStyle;rounded=0;orthogonalLoop=1;jettySize=auto;html=1;endArrow=block;endFill=0;strokeWidth=2;" edge="1" parent="1" source="X3c0APTzvyZXx92i1vRk-8" target="X3c0APTzvyZXx92i1vRk-7">
          <mxGeometry relative="1" as="geometry" />
        </mxCell>
        <mxCell id="X3c0APTzvyZXx92i1vRk-8" value="Датчики покзаний" style="rounded=0;whiteSpace=wrap;html=1;" vertex="1" parent="1">
          <mxGeometry x="780" y="310" width="120" height="60" as="geometry" />
        </mxCell>
        <mxCell id="X3c0APTzvyZXx92i1vRk-11" style="edgeStyle=orthogonalEdgeStyle;rounded=0;orthogonalLoop=1;jettySize=auto;html=1;endArrow=block;endFill=0;strokeWidth=2;" edge="1" parent="1" source="X3c0APTzvyZXx92i1vRk-9" target="X3c0APTzvyZXx92i1vRk-7">
          <mxGeometry relative="1" as="geometry" />
        </mxCell>
        <mxCell id="X3c0APTzvyZXx92i1vRk-9" value="Интерактивные элементы" style="rounded=0;whiteSpace=wrap;html=1;" vertex="1" parent="1">
          <mxGeometry x="610" y="420" width="120" height="60" as="geometry" />
        </mxCell>
        <mxCell id="X3c0APTzvyZXx92i1vRk-20" style="edgeStyle=orthogonalEdgeStyle;rounded=0;orthogonalLoop=1;jettySize=auto;html=1;entryX=0.5;entryY=0;entryDx=0;entryDy=0;endArrow=diamond;endFill=0;strokeWidth=2;" edge="1" parent="1" source="X3c0APTzvyZXx92i1vRk-19" target="X3c0APTzvyZXx92i1vRk-2">
          <mxGeometry relative="1" as="geometry" />
        </mxCell>
        <mxCell id="X3c0APTzvyZXx92i1vRk-19" value="Заводские устройства" style="rounded=0;whiteSpace=wrap;html=1;" vertex="1" parent="1">
          <mxGeometry x="570" y="30" width="120" height="60" as="geometry" />
        </mxCell>
      </root>
    </mxGraphModel>
  </diagram>
</mxfile>
